<?xml version="1.0" encoding="UTF-8" standalone="no"?>

<!DOCTYPE svg PUBLIC "-//W3C//DTD SVG 1.1//EN" "http://www.w3.org/Graphics/SVG/1.1/DTD/svg11.dtd">
<svg xmlns="http://www.w3.org/2000/svg" width="160" height="160" viewBox="0 0 2048 2048" version="1.1">
  <path
    d="M 1305.296 731.744 C 1309.583 731.932, 1316.333 731.931, 1320.296 731.742 C 1324.258 731.552, 1320.750 731.399, 1312.500 731.400 C 1304.250 731.401, 1301.008 731.556, 1305.296 731.744 M 1064.999 751.250 C 1059.647 754.904, 1057.787 759.347, 1058.298 767.264 L 1058.735 774.027 1046.367 783.137 C 1036.569 790.355, 1034 792.741, 1034 794.624 C 1034 798.351, 1035.017 797.779, 1060.055 779.960 C 1066.381 775.458, 1065.385 779.164, 1053.166 805.601 C 1041.035 831.848, 1038.078 839.413, 1039.426 840.756 C 1040.856 842.181, 1044.372 836.377, 1053.516 817.500 C 1058.578 807.050, 1064.470 794.900, 1066.610 790.500 L 1070.500 782.500 1071 796.165 L 1071.500 809.830 1073.750 808.005 C 1075.849 806.302, 1076 805.401, 1076 794.590 C 1076 781.080, 1076.724 780.375, 1081.224 789.500 C 1084.481 796.105, 1085.824 797.122, 1087.933 794.581 C 1088.863 793.460, 1088.468 791.889, 1086.055 787.109 C 1081.175 777.442, 1082.786 776.333, 1091.812 783.148 C 1095.943 786.267, 1097.688 787.056, 1098.844 786.327 C 1101.734 784.504, 1101.085 783.231, 1095.038 778.867 C 1090.096 775.301, 1089.114 774.133, 1089.679 772.500 C 1093.887 760.353, 1086.312 749, 1074 749 C 1069.728 749, 1067.468 749.565, 1064.999 751.250 M 1285.299 774.745 C 1290.139 774.929, 1297.789 774.928, 1302.299 774.743 C 1306.810 774.558, 1302.850 774.408, 1293.500 774.409 C 1284.150 774.410, 1280.460 774.562, 1285.299 774.745 M 1158.128 825.346 C 1157.242 826.413, 1159.236 828.343, 1167.755 834.661 C 1180.567 844.163, 1210.153 865.156, 1218.297 870.524 C 1230.136 878.328, 1229.595 878.459, 1184.302 878.762 L 1145.104 879.023 1143.178 874.669 C 1140.793 869.278, 1136.939 866.443, 1130.370 865.249 C 1124.723 864.223, 1124.131 864.716, 1118.980 874.750 L 1116.798 879 1103.505 879 L 1090.212 879 1087.856 874.250 C 1086.074 870.657, 1084.404 868.948, 1081 867.233 L 1076.500 864.965 1076 844.938 C 1075.256 815.120, 1071.719 816.562, 1071.145 846.917 C 1070.807 864.780, 1070.664 866, 1068.910 866 C 1066.201 866, 1058 874.187, 1058 876.891 C 1058 879.086, 1057.808 879.119, 1047.065 878.812 L 1036.130 878.500 1034.495 881.273 C 1033.595 882.799, 1033.228 883.983, 1033.680 883.905 C 1041.448 882.562, 1057.841 884.232, 1058.391 886.423 C 1059.316 890.108, 1063.695 894.760, 1067.549 896.154 L 1071 897.402 1070.995 934.951 L 1070.990 972.500 1067.252 974.038 L 1063.514 975.577 1041.007 959.090 C 1028.628 950.022, 1016.453 941.208, 1013.950 939.504 C 1011.448 937.799, 1006.273 933.910, 1002.450 930.861 L 995.500 925.317 995.658 919.409 L 995.815 913.500 1003.568 906.414 C 1011.062 899.564, 1012.296 897, 1008.100 897 C 1007.120 897, 1001.548 901.050, 995.718 906 C 982.681 917.069, 987.406 917.697, 952.504 900.258 C 916.840 882.438, 916.840 884, 952.500 884 L 982 884 982 881.515 L 982 879.030 952.250 878.765 C 914.811 878.432, 915.197 880.180, 947.490 857.226 C 961.922 846.968, 972.629 838.687, 972.834 837.626 C 973.658 833.343, 971.050 834.138, 960.918 841.256 C 955.188 845.282, 943.569 853.464, 935.098 859.437 C 924.679 866.785, 919.306 870.007, 918.489 869.399 C 912.423 864.884, 911.394 864.500, 905.367 864.500 C 890.455 864.500, 882.158 885.836, 894.156 893.330 C 896.879 895.030, 896.857 895.096, 885.699 918.704 C 880.033 930.692, 867.128 958.110, 857.022 979.633 L 838.646 1018.767 831.906 1018.633 C 823.852 1018.474, 820.731 1020.260, 817.181 1027.059 C 811.088 1038.730, 819.227 1051.418, 832.462 1050.878 L 838.448 1050.633 851.787 1079.067 C 859.123 1094.705, 868.435 1114.700, 872.480 1123.500 C 876.525 1132.300, 883.662 1147.458, 888.340 1157.185 L 896.846 1174.871 894.444 1176.445 C 893.123 1177.311, 891.411 1179.252, 890.641 1180.759 C 881.986 1197.697, 901.485 1215.171, 915.403 1202.951 C 919.763 1199.123, 917.691 1198.228, 937.640 1212.559 C 947.256 1219.466, 959.119 1227.742, 964.004 1230.949 C 968.889 1234.157, 972.584 1237.168, 972.216 1237.641 C 971.848 1238.113, 974.123 1236.040, 977.273 1233.034 C 980.423 1230.028, 983 1227.335, 983 1227.051 C 983 1226.766, 981.377 1228.157, 979.393 1230.141 L 975.785 1233.748 955.143 1218.743 C 914.321 1189.070, 913.860 1192.563, 958.637 1192.238 L 994.773 1191.975 995.373 1189.738 C 995.703 1188.507, 995.979 1187.162, 995.986 1186.750 C 995.994 1186.338, 979.548 1186, 959.441 1186 C 938.062 1186, 923.113 1185.627, 923.438 1185.101 C 924.126 1183.988, 978.262 1157.223, 981.439 1156.426 C 983.103 1156.008, 985.725 1157.119, 990.881 1160.424 C 999.330 1165.840, 999 1165.773, 999 1162.067 C 999 1160.039, 998.399 1158.944, 997.051 1158.516 C 995.008 1157.868, 994.517 1156.822, 993.465 1150.871 C 992.801 1147.118, 1011.201 1129.770, 1014.007 1131.504 C 1014.553 1131.842, 1015.018 1131.529, 1015.040 1130.809 C 1015.072 1129.793, 1055.791 1099.076, 1061.480 1095.777 C 1062.166 1095.379, 1064.588 1095.785, 1066.863 1096.678 L 1071 1098.303 1070.964 1135.902 L 1070.928 1173.500 1066.714 1175.500 C 1063.604 1176.976, 1061.976 1178.617, 1060.500 1181.767 L 1058.500 1186.033 1049.225 1185.767 C 1042.231 1185.566, 1040.325 1185.773, 1041.475 1186.610 C 1042.314 1187.221, 1043 1188.147, 1043 1188.669 C 1043 1189.191, 1043.708 1190.491, 1044.574 1191.559 C 1045.440 1192.626, 1045.863 1192.938, 1045.515 1192.250 C 1045.041 1191.313, 1046.507 1191, 1051.362 1191 C 1057.759 1191, 1057.849 1191.038, 1058.505 1194.024 C 1059.442 1198.287, 1063.307 1202.506, 1067.996 1204.382 L 1072 1205.984 1072 1215.337 C 1072 1223.128, 1072.305 1224.966, 1073.829 1226.345 C 1076.811 1229.044, 1077 1228.491, 1077 1217.089 L 1077 1206.178 1081.417 1204.040 C 1086.034 1201.805, 1088.462 1198.993, 1089.563 1194.604 L 1090.217 1192 1110.358 1192.004 L 1130.500 1192.007 1132.350 1196.507 C 1137.414 1208.820, 1153.924 1209.362, 1160 1197.416 C 1161.375 1194.712, 1162.624 1192.301, 1162.775 1192.059 C 1162.926 1191.816, 1165.626 1194.066, 1168.774 1197.059 L 1174.499 1202.500 1169.537 1197.250 L 1164.575 1192 1194.288 1192 C 1230.519 1192, 1229.890 1191.536, 1211.250 1204.487 C 1204.237 1209.360, 1197.521 1214.215, 1196.324 1215.278 C 1195.042 1216.416, 1193.604 1216.901, 1192.824 1216.458 C 1191.317 1215.603, 1192.041 1216.309, 1196.470 1220.015 C 1198.103 1221.382, 1198.835 1221.713, 1198.097 1220.750 C 1196.963 1219.272, 1196.979 1219, 1198.199 1219 C 1198.992 1219, 1205.859 1214.778, 1213.458 1209.618 L 1227.275 1200.235 1231.722 1203.368 C 1249.115 1215.620, 1268.308 1190.376, 1252.020 1176.670 L 1248.768 1173.934 1259.020 1152.217 C 1283.394 1100.585, 1287.142 1092.594, 1294.766 1076 C 1307.662 1047.934, 1307.337 1049, 1303 1049 C 1301.350 1049, 1300 1049.493, 1300 1050.095 C 1300 1052.133, 1270.217 1116.646, 1244.717 1169.845 C 1242.553 1174.357, 1242.142 1169.009, 1242.070 1135.474 L 1242 1102.448 1246.250 1100.474 C 1252.412 1097.612, 1255 1093.176, 1255 1085.475 L 1255 1079.245 1273.750 1065.611 C 1284.063 1058.112, 1293.625 1051.092, 1295 1050.011 L 1297.500 1048.044 1293.500 1048.041 C 1289.582 1048.038, 1279.128 1054.747, 1256.787 1071.603 L 1252.074 1075.158 1248.787 1072.727 C 1246.979 1071.390, 1244.713 1070.018, 1243.750 1069.679 C 1242.249 1069.150, 1242 1067.707, 1242 1059.531 C 1242 1050.031, 1241.992 1050, 1239.500 1050 C 1237.010 1050, 1237 1050.039, 1237 1059.422 L 1237 1068.845 1233.665 1069.946 C 1224.963 1072.817, 1220.041 1085.200, 1224.500 1093 C 1225.286 1094.375, 1225.945 1095.775, 1225.965 1096.111 C 1226.046 1097.511, 1198.876 1117.274, 1198.050 1116.415 C 1196.744 1115.058, 1155.942 1052.012, 1155.319 1050.390 C 1155.026 1049.625, 1153.436 1049, 1151.786 1049 C 1147.614 1049, 1147.721 1049.187, 1183.712 1104.316 C 1189.390 1113.015, 1193.776 1120.553, 1193.458 1121.068 C 1191.929 1123.542, 1162.507 1145.456, 1161.122 1145.153 C 1157.338 1144.325, 1115.024 1111.383, 1114.921 1109.186 C 1114.875 1108.210, 1114.635 1108.010, 1114.351 1108.711 C 1113.329 1111.230, 1088.914 1091.837, 1089.536 1089 C 1091.980 1077.844, 1089.946 1071.566, 1082.480 1067.229 C 1070.863 1060.481, 1054.940 1070.630, 1057.361 1083.241 C 1057.705 1085.033, 1058.209 1087.625, 1058.482 1089 C 1058.933 1091.276, 1056.918 1092.997, 1035.989 1108.215 C 1023.345 1117.409, 1012.971 1124.384, 1012.937 1123.715 C 1012.902 1123.047, 1012.498 1123.427, 1012.039 1124.560 C 1011.581 1125.692, 1007.447 1129.313, 1002.853 1132.604 C 998.259 1135.896, 992.201 1140.254, 989.390 1142.288 L 984.281 1145.986 979.890 1142.843 C 948.766 1120.564, 949.616 1125.435, 970.986 1091.805 C 987.918 1065.157, 991.512 1058, 987.958 1058 C 987.034 1058, 971.271 1081.439, 954.500 1107.750 C 951.257 1112.838, 948.212 1117, 947.732 1117 C 944.332 1117, 920.955 1096.355, 921.697 1094.006 C 924.860 1083.980, 921.398 1074.463, 913.487 1071.442 L 909 1069.728 909 1034.442 L 909 999.155 912.450 998.016 C 914.348 997.390, 917.250 995.340, 918.901 993.460 C 923.191 988.574, 923.783 984.406, 921.520 975 C 920.972 972.724, 946.047 950.587, 947.424 952.131 C 947.605 952.334, 956.188 965.775, 966.496 982 C 988.404 1016.481, 987 1014.638, 987 1008.916 C 987 1004.823, 985.479 1002.045, 969.506 976.966 C 959.885 961.860, 952.010 949.200, 952.006 948.833 C 952 948.192, 974.144 930.684, 980.670 926.170 L 983.841 923.977 990.670 928.639 C 997.164 933.070, 1008.931 941.784, 1010 942.953 C 1010.275 943.254, 1011.268 943.950, 1012.208 944.500 C 1021.525 949.957, 1059.964 979.630, 1059.417 980.943 C 1052.665 997.152, 1067.738 1012.553, 1081.903 1003.918 C 1090.294 998.802, 1092.128 992.251, 1088.489 980.394 C 1087.973 978.715, 1088.718 977.644, 1092.171 975.099 L 1096.500 971.909 1097.067 979.705 L 1097.633 987.500 1097.817 979.303 L 1098 971.107 1119.836 954.668 C 1131.847 945.627, 1144.999 935.660, 1149.063 932.519 C 1160.260 923.868, 1163.271 922.532, 1165.631 925.164 C 1166.659 926.309, 1173.463 931.952, 1180.750 937.702 C 1196.581 950.193, 1199.027 941.472, 1164.821 994.500 C 1162.338 998.350, 1157.759 1005.438, 1154.647 1010.250 L 1148.988 1019 1152.244 1018.993 C 1155.300 1018.986, 1155.937 1018.297, 1162.632 1007.743 C 1180.661 979.323, 1197.302 953.421, 1198.048 952.616 C 1199.844 950.680, 1225.125 972.248, 1224.285 975 C 1221.326 984.695, 1224.825 993.814, 1232.901 997.455 L 1237 999.304 1237 1009.218 L 1237 1019.133 1239.750 1018.816 L 1242.500 1018.500 1242.238 1009 L 1241.976 999.500 1246.859 996.822 L 1251.742 994.145 1267.121 1005.664 C 1285.420 1019.370, 1285.125 1019.198, 1289.675 1018.808 C 1293.197 1018.506, 1292.901 1018.230, 1274.015 1004.182 L 1254.766 989.864 1255.405 985.870 C 1256.702 977.759, 1252.204 969.212, 1245.467 966.989 L 1242 965.845 1242.015 933.172 C 1242.029 903.453, 1242.713 894.270, 1244.598 898.500 C 1267.908 950.814, 1300.959 1018.539, 1303.314 1018.816 C 1307.415 1019.299, 1308.530 1022.215, 1287.503 977.500 C 1273.675 948.093, 1250 896.947, 1250 896.480 C 1250 896.300, 1251.309 894.844, 1252.910 893.244 C 1266.881 879.273, 1248.189 856.154, 1231.734 867.053 L 1227.125 870.106 1208.812 857.388 C 1198.741 850.393, 1187.350 842.355, 1183.500 839.524 C 1164.425 825.500, 1160.036 823.047, 1158.128 825.346 M 1089.049 887.353 C 1087.697 891.448, 1084.681 894.400, 1079.736 896.466 L 1076 898.027 1076 935 L 1076 971.973 1079.605 973.480 C 1083.933 975.288, 1079.781 977.910, 1117.493 949.551 C 1159.421 918.021, 1157.875 920.644, 1143.042 906.201 C 1134.215 897.606, 1134.020 897.484, 1129.668 897.830 C 1122.465 898.403, 1111.818 891.078, 1113.980 887.038 C 1114.541 885.989, 1115 884.877, 1115 884.566 C 1115 884.255, 1109.410 884, 1102.578 884 L 1090.155 884 1089.049 887.353 M 1141.814 889.553 L 1139.129 894.982 1148.921 903.879 C 1161.149 914.989, 1161.978 915.458, 1166.227 913.665 C 1175.077 909.930, 1223 885.620, 1223 884.866 C 1223 884.390, 1205.338 884.028, 1183.750 884.062 L 1144.500 884.124 1141.814 889.553 M 918.212 893.330 C 918.727 896.021, 947.808 943, 948.960 943 C 950.117 943, 977.301 921.597, 977.713 920.362 C 978.157 919.029, 923.059 891, 919.993 891 C 918.201 891, 917.854 891.454, 918.212 893.330 M 1196.157 905.035 C 1180.568 912.683, 1167.968 919.370, 1168.157 919.895 C 1168.548 920.983, 1197.077 944.307, 1197.420 943.819 C 1203.902 934.598, 1228.054 893.584, 1227.639 892.502 C 1226.722 890.111, 1225.958 890.415, 1196.157 905.035 M 909 931.279 L 909 965.696 912.876 967.444 L 916.752 969.192 930.126 958.491 C 937.482 952.606, 943.616 947.489, 943.759 947.120 C 944.466 945.284, 913.307 897.485, 911.204 897.180 L 909 896.861 909 931.279 M 1230.193 901.250 C 1224.178 910.056, 1202.736 945.275, 1202.620 946.538 C 1202.554 947.262, 1208.436 952.590, 1215.692 958.378 L 1228.883 968.901 1232.931 967.201 L 1236.980 965.500 1236.990 931.857 C 1236.999 902.095, 1236.818 898.144, 1235.418 897.607 C 1233.164 896.742, 1233.370 896.599, 1230.193 901.250 M 891.565 919.250 C 880.945 941.190, 878.029 947.321, 865.279 974.500 C 861.151 983.300, 854.417 997.645, 850.315 1006.378 C 840.588 1027.082, 840.475 1027.079, 867.887 1006.756 L 891.162 989.500 891.331 982.500 C 891.527 974.362, 893.748 970.297, 899.480 967.576 L 903 965.906 903 931.953 C 903 913.279, 902.741 898, 902.425 898 C 902.109 898, 897.221 907.563, 891.565 919.250 M 892.621 994.803 C 892.348 995.245, 882.176 1002.958, 870.016 1011.943 C 842.107 1032.565, 842.093 1031.420, 870.263 1031.770 L 892 1032.039 892 1035.020 L 892 1038 870 1038 C 842.537 1038, 842.469 1036.593, 870.958 1057.861 C 895.794 1076.402, 894.891 1075.883, 897.419 1073.090 C 898.369 1072.039, 900.301 1070.890, 901.711 1070.536 L 904.275 1069.893 903.736 1034.420 L 903.197 998.947 898.546 996.473 C 893.326 993.698, 893.308 993.693, 892.621 994.803 M 1048 1019 L 998.500 1019.528 1047.691 1019.764 C 1079.663 1019.917, 1097.098 1019.650, 1097.500 1019 C 1097.840 1018.450, 1097.979 1018.106, 1097.809 1018.236 C 1097.639 1018.366, 1075.225 1018.709, 1048 1019 M 1117.750 1031.744 C 1122.287 1031.929, 1129.713 1031.929, 1134.250 1031.744 C 1138.787 1031.559, 1135.075 1031.407, 1126 1031.407 C 1116.925 1031.407, 1113.213 1031.559, 1117.750 1031.744 M 1197.750 1031.744 C 1202.287 1031.929, 1209.713 1031.929, 1214.250 1031.744 C 1218.787 1031.559, 1215.075 1031.407, 1206 1031.407 C 1196.925 1031.407, 1193.213 1031.559, 1197.750 1031.744 M 1313.311 1031.748 C 1321.457 1031.916, 1334.507 1031.916, 1342.311 1031.747 C 1350.115 1031.579, 1343.450 1031.441, 1327.500 1031.441 C 1311.550 1031.442, 1305.165 1031.580, 1313.311 1031.748 M 1316.500 1036.705 C 1341.452 1037.413, 1364.771 1037.434, 1364.347 1036.750 C 1364.091 1036.338, 1350.971 1036.095, 1335.191 1036.211 C 1319.411 1036.327, 1311 1036.549, 1316.500 1036.705 M 843.562 1046.899 C 842.997 1047.813, 885.357 1139.805, 898.060 1165.250 C 902.989 1175.124, 903 1175.059, 902.997 1137.250 L 902.995 1102.500 899.328 1100.500 C 893.389 1097.260, 891.515 1093.878, 891.402 1086.193 L 891.303 1079.531 879.402 1070.717 C 844.856 1045.134, 844.712 1045.039, 843.562 1046.899 M 1080.250 1097.123 L 1076 1099.076 1076 1136.458 L 1076 1173.841 1079.024 1174.505 C 1083.239 1175.431, 1087.654 1179.422, 1089.011 1183.533 L 1090.155 1187 1110.609 1187 C 1129.223 1187, 1131.110 1186.843, 1131.586 1185.250 C 1133.492 1178.880, 1138.987 1174, 1144.255 1174 C 1146.532 1174, 1147.075 1173.638, 1146.612 1172.431 C 1146.162 1171.258, 1146.672 1171.384, 1148.640 1172.931 C 1150.086 1174.069, 1151.796 1175, 1152.439 1175 C 1154.093 1175, 1159.647 1181.062, 1160.457 1183.750 L 1161.135 1186 1192.567 1186 C 1230.476 1186, 1230.285 1187.428, 1194.689 1170.193 C 1161.296 1154.024, 1163.450 1154.550, 1155 1160.500 C 1144.875 1167.630, 1141.649 1165.862, 1150.035 1157.779 C 1157.805 1150.290, 1158.258 1150.977, 1132.425 1131.089 C 1126.416 1126.463, 1120.938 1122.676, 1120.250 1122.672 C 1119.563 1122.669, 1119 1122.138, 1119 1121.492 C 1119 1120.378, 1087.909 1096.180, 1085.597 1095.495 C 1084.994 1095.316, 1082.588 1096.049, 1080.250 1097.123 M 911.750 1101.572 L 909 1103.064 909 1138.032 C 909 1181.542, 907.619 1180.595, 927 1150.366 C 934.975 1137.927, 942.296 1126.512, 943.269 1124.999 L 945.039 1122.249 932.655 1112.640 C 925.844 1107.355, 919.705 1102.349, 919.013 1101.516 C 917.448 1099.629, 915.300 1099.646, 911.750 1101.572 M 1218.474 1108.805 C 1212.409 1113.587, 1206.162 1118.512, 1204.590 1119.749 L 1201.733 1121.998 1207.738 1131.749 C 1240.417 1184.812, 1237 1184.117, 1237 1137.701 L 1237 1102.402 1233.679 1101.201 C 1231.852 1100.540, 1230.165 1100.025, 1229.929 1100.055 C 1229.693 1100.085, 1224.538 1104.022, 1218.474 1108.805 M 934.932 1148.246 C 915.535 1178.444, 916.730 1176.249, 918.422 1178.563 C 919.747 1180.374, 979.999 1152.301, 980 1149.872 C 980 1149.340, 973.006 1143.891, 952.884 1128.746 L 949.226 1125.993 934.932 1148.246 M 1181.673 1137.583 C 1173.542 1143.953, 1167.048 1149.645, 1167.244 1150.231 C 1167.940 1152.319, 1226.404 1179.822, 1227.793 1178.715 C 1229.568 1177.300, 1199.699 1126, 1197.101 1126 C 1196.747 1126, 1189.805 1131.212, 1181.673 1137.583 M 1038.514 1228.977 C 1037.335 1230.884, 1040.208 1238.250, 1052.597 1265.091 C 1067.819 1298.071, 1067.946 1297.689, 1046.971 1282.009 C 1031.028 1270.090, 1029.074 1269.184, 1029.015 1273.680 C 1029.007 1274.328, 1035.638 1279.891, 1043.750 1286.041 C 1053.138 1293.158, 1058.434 1297.818, 1058.318 1298.861 C 1058.218 1299.763, 1057.831 1302.346, 1057.456 1304.603 C 1056.946 1307.680, 1057.287 1309.860, 1058.820 1313.326 C 1066.987 1331.789, 1095.361 1320.755, 1090.119 1301.154 C 1089.468 1298.721, 1089.063 1296.633, 1089.218 1296.512 C 1089.373 1296.392, 1095.241 1292.116, 1102.259 1287.010 C 1112.476 1279.575, 1114.792 1277.454, 1113.886 1276.363 C 1111.890 1273.958, 1109.928 1274.837, 1097.943 1283.500 C 1080.915 1295.809, 1080.627 1295.622, 1088.500 1277.365 C 1091.525 1270.351, 1094 1263.799, 1094 1262.806 C 1094 1261.121, 1093.644 1260.861, 1090.980 1260.600 C 1090.157 1260.519, 1083.441 1274.563, 1078.952 1285.750 C 1076.659 1291.465, 1076 1287.433, 1076 1267.700 C 1076 1247.291, 1075.628 1245, 1072.319 1245 C 1071.324 1245, 1070.978 1249.971, 1070.769 1267.250 L 1070.500 1289.500 1065.188 1278.500 C 1040.260 1226.879, 1040.051 1226.490, 1038.514 1228.977 M 852.250 1317.745 C 857.063 1317.928, 864.938 1317.928, 869.750 1317.745 C 874.563 1317.561, 870.625 1317.411, 861 1317.411 C 851.375 1317.411, 847.438 1317.561, 852.250 1317.745 M 1321.206 1317.741 C 1324.895 1317.932, 1331.195 1317.934, 1335.206 1317.743 C 1339.218 1317.553, 1336.200 1317.396, 1328.500 1317.395 C 1320.800 1317.393, 1317.518 1317.549, 1321.206 1317.741"
    stroke="none" fill="#9fa0a2" fill-rule="evenodd" />
  <path
    d="M 808.500 733.118 C 645.625 744.429, 542.085 851.514, 535.466 1015.500 C 529.576 1161.436, 611.081 1271.301, 750.500 1305.356 C 852.011 1330.151, 1007.069 1313.505, 1020.982 1276.319 C 1022.935 1271.099, 1036 1208.972, 1036 1204.905 C 1036 1203.907, 1033.150 1198.683, 1029.667 1193.296 C 1026.184 1187.908, 1021.673 1180.512, 1019.643 1176.860 C 1013.558 1165.916, 1012.195 1166.451, 1006.552 1182 C 984.769 1242.018, 952.387 1263.268, 880.500 1264.718 C 721.723 1267.921, 618.951 1139.306, 634.057 956.304 C 645.280 820.339, 734.836 754.072, 875 778.019 C 954.342 791.574, 987.031 818.865, 997.454 880.250 L 998.091 884 1012.077 884 C 1022.376 884, 1026.173 883.670, 1026.481 882.750 C 1026.712 882.063, 1027.839 861.700, 1028.987 837.500 C 1030.134 813.300, 1031.489 785.854, 1031.997 776.510 C 1033.106 756.089, 1036.964 759.386, 1003.500 752.155 C 922.417 734.634, 865.989 729.125, 808.500 733.118 M 1276.500 733.010 C 1195.188 740.087, 1135.252 765.083, 1088.620 811.365 L 1076.394 823.500 1076.516 844.364 L 1076.639 865.229 1080.062 866.668 C 1084.710 868.623, 1087.724 871.634, 1089.049 875.647 L 1090.155 879 1103.328 878.961 L 1116.500 878.923 1122.500 868.376 C 1165.170 793.371, 1235.098 762.797, 1333 776.341 C 1417.002 787.962, 1453.832 816.286, 1462.435 875.883 C 1464.276 888.639, 1462.364 887.452, 1479.057 886.204 C 1496.347 884.911, 1494.192 888.683, 1495.616 857.213 C 1496.281 842.521, 1497.610 814.409, 1498.571 794.742 C 1499.531 775.074, 1500.124 758.790, 1499.888 758.555 C 1497.986 756.652, 1419.934 741.114, 1397 738.071 C 1358.921 733.020, 1303.253 730.682, 1276.500 733.010 M 1060.815 842.750 C 1052.827 853.332, 1037 877.157, 1037 878.599 C 1037 878.820, 1041.669 879, 1047.375 879 L 1057.750 879 1058.325 876.127 C 1059.060 872.450, 1064.426 867.065, 1068.085 866.333 L 1070.915 865.767 1071.207 847.882 C 1071.368 838.046, 1071.261 829.998, 1070.970 829.999 C 1070.678 829.999, 1066.108 835.737, 1060.815 842.750 M 1028.606 894.420 C 1019.876 913.978, 1011.951 937.430, 1013.582 938.879 C 1014.087 939.328, 1025.486 947.686, 1038.913 957.454 L 1063.327 975.212 1067.163 973.946 L 1071 972.680 1071 934.840 C 1071 897.890, 1070.954 897, 1069.035 897 C 1066.208 897, 1060.291 891.447, 1058.839 887.431 L 1057.598 884 1045.428 884 L 1033.257 884 1028.606 894.420 M 1089.054 887.335 C 1087.763 891.249, 1083.625 895.390, 1079.772 896.625 L 1077.044 897.500 1076.425 934.560 L 1075.806 971.620 1079.707 973.153 L 1083.608 974.685 1091.304 969.163 C 1098.968 963.665, 1099 963.622, 1099.005 959.071 C 1099.020 946.402, 1105.353 913.990, 1111.865 893.250 L 1114.769 884 1102.462 884 L 1090.155 884 1089.054 887.335 M 1010.631 944.789 C 1008.374 948.440, 1001.600 986.401, 1000.511 1001.500 C 1000.194 1005.900, 999.708 1011.638, 999.433 1014.250 L 998.931 1019 1047.966 1019 L 1097 1019 1097 995.438 L 1097 971.876 1092.500 975.107 C 1087.345 978.809, 1087.561 978.154, 1089.585 983.968 C 1093.444 995.051, 1085.621 1006.003, 1073.849 1005.998 C 1062.185 1005.994, 1054.371 994.965, 1058.297 984.047 C 1059.182 981.586, 1059.815 979.498, 1059.703 979.407 C 1048.082 969.942, 1011.176 943.906, 1010.631 944.789 M 1000.499 1058.250 C 1001.926 1076.817, 1007.554 1107.625, 1012.087 1121.688 L 1013.114 1124.877 1025.430 1115.688 C 1032.204 1110.635, 1042.573 1102.986, 1048.474 1098.691 C 1057.777 1091.918, 1059.114 1090.590, 1058.537 1088.691 C 1054.701 1076.051, 1061.563 1065, 1073.247 1065 C 1086.053 1065, 1094.111 1076.597, 1089.704 1088.684 C 1088.998 1090.619, 1090.291 1091.913, 1101.031 1100.023 C 1114.947 1110.532, 1114.561 1110.463, 1111.897 1101.957 C 1108.471 1091.021, 1103.063 1068.053, 1101.795 1059.053 C 1100.240 1048.020, 1105.550 1049.033, 1049.144 1049.015 L 999.788 1049 1000.499 1058.250 M 1038.802 1112.263 C 1025.769 1121.743, 1015.081 1130.041, 1015.052 1130.702 C 1014.869 1134.904, 1031.029 1170.380, 1038.305 1181.750 L 1041.025 1186 1050.013 1186 C 1057.710 1186, 1059 1185.762, 1059 1184.344 C 1059 1181.559, 1063.805 1176.200, 1067.502 1174.863 L 1071 1173.598 1071 1136 L 1071 1098.402 1067.250 1096.956 C 1065.188 1096.161, 1063.275 1095.401, 1063 1095.268 C 1062.725 1095.135, 1051.836 1102.783, 1038.802 1112.263 M 1080.307 1097.350 L 1076.114 1099.398 1076.454 1127.949 C 1076.642 1143.652, 1076.841 1160.347, 1076.897 1165.049 L 1077 1173.598 1080.451 1174.846 C 1084.305 1176.240, 1088.684 1180.892, 1089.609 1184.577 L 1090.217 1187 1110.531 1187 L 1130.845 1187 1131.946 1183.665 C 1133.441 1179.134, 1137.634 1175.403, 1142.754 1174.047 L 1147.008 1172.921 1142.159 1165.710 C 1134.521 1154.352, 1128.241 1142.947, 1123.035 1130.980 L 1118.227 1119.930 1101.864 1107.485 C 1092.864 1100.641, 1085.275 1095.100, 1085 1095.171 C 1084.725 1095.243, 1082.613 1096.223, 1080.307 1097.350 M 1472.588 1183.153 C 1450.669 1241.711, 1422.542 1261.463, 1356 1265.024 C 1285.223 1268.812, 1219.511 1245.350, 1170.384 1198.750 C 1162.238 1191.024, 1162.439 1191.116, 1161.542 1194.689 C 1159.841 1201.466, 1154.019 1206, 1147.018 1206 C 1139.208 1206, 1133.201 1201.633, 1131.458 1194.689 L 1130.783 1192 1110.392 1192 C 1091.639 1192, 1090 1192.141, 1089.996 1193.750 C 1089.989 1197.241, 1085.973 1202.124, 1081.473 1204.115 L 1077 1206.094 1077 1218.446 L 1077 1230.799 1082.309 1235.650 C 1149.325 1296.875, 1242.843 1323.624, 1363.500 1316.080 C 1444.121 1311.040, 1480.124 1297.417, 1488.385 1268.827 C 1492.442 1254.785, 1508 1179.367, 1508 1173.742 C 1508 1172.711, 1504.817 1172.072, 1495.250 1171.179 C 1475.690 1169.355, 1478.261 1167.996, 1472.588 1183.153 M 1046.693 1194.084 C 1049.012 1198.042, 1059.291 1210.785, 1066.389 1218.500 L 1071.908 1224.500 1071.940 1217 C 1071.981 1207.492, 1071.374 1205.311, 1068.483 1204.585 C 1064.615 1203.614, 1060.107 1199.090, 1058.860 1194.926 L 1057.683 1191 1051.285 1191 L 1044.887 1191 1046.693 1194.084"
    stroke="none" fill="#f6339a" fill-rule="evenodd" />
  <path
    d="M 1076.385 845 C 1076.385 851.875, 1076.545 854.688, 1076.740 851.250 C 1076.936 847.813, 1076.936 842.188, 1076.740 838.750 C 1076.545 835.313, 1076.385 838.125, 1076.385 845 M 1076.407 916 C 1076.407 925.075, 1076.559 928.788, 1076.744 924.250 C 1076.929 919.712, 1076.929 912.288, 1076.744 907.750 C 1076.559 903.212, 1076.407 906.925, 1076.407 916 M 1376 1017.536 C 1371.270 1019.664, 1367.268 1023.658, 1365.992 1027.523 C 1364.505 1032.031, 1375.805 1031.827, 1154.151 1031.348 C 1000.106 1031.015, 955.477 1031.190, 954.346 1032.128 C 947.639 1037.694, 929.946 1037.281, 1157.421 1036.872 L 1364.043 1036.500 1366.361 1041.503 C 1374.831 1059.783, 1402 1054.243, 1402 1034.236 C 1402 1021.764, 1387.419 1012.398, 1376 1017.536"
    stroke="none" fill="#0e1738" fill-rule="evenodd" />
</svg>